<svg xmlns="http://www.w3.org/2000/svg" version="1.0" viewBox="0 0 156 106">
    <path fill="#62211c"
          d="M61.4 23.3c-5.4 4-10.5 7.6-11.2 8.1-.9.5-2.4-.4-4.5-2.9l-3.2-3.7-18.7 21.4C13.6 57.9 5.3 67.6 5.4 67.8c.2.1 6.9-3.6 14.9-8.3 8-4.7 15-8.5 15.5-8.5s2.6 2.5 4.6 5.5L44 62l4-2.6 3.9-2.6 10.7 5.6c5.9 3.1 10.9 5.5 11.1 5.3.1-.2-3.3-5.5-7.7-11.7-4.4-6.3-8-11.7-8-12 0-.3 3.5-4.3 7.8-8.8l7.7-8.1 9.5 1.8c5.2 1.1 9.6 1.8 9.7 1.7C93.1 30.3 73 16 72.1 16c-.4 0-5.2 3.3-10.7 7.3zM98 32.7c-3.6 4.2-8 9.3-9.8 11.4l-3.3 3.8 3.8-1.5c2.1-.9 5.9-2.7 8.5-4 2.6-1.3 5.4-2.4 6.3-2.4.8 0 12 5.2 24.8 11.6C141 58 150.8 62.5 150 61.7c-4.2-4-44-36.7-44.7-36.6-.4 0-3.7 3.4-7.3 7.6z"
          class="hill"/>
    <path fill="#cf2226"
          d="M92 51.1c-1.9.8-2.1 1.2-1.1 1.8 1.4.9 1.2 2-1.4 8.5-.7 1.6-.6 1.7 1.3.7 1.2-.6 2.7-2.9 3.3-5.1 1.2-3.8 3.9-5.6 3.9-2.5 0 .8-.5 1.5-1.2 1.5-.6 0-.9.2-.6.5 1.2 1.2 5.8-1.5 5.8-3.4 0-2.9-5.2-3.9-10-2zM75 52c-1.2.8-.9 1 1.3 1 3.2 0 3.1-.4 1.2 5-1.9 5.3-1.9 5.3.5 4 1-.6 2.5-2.8 3.1-5 .8-2.5 1.8-4 2.8-4 .9 0 2.3-.5 3.1-1 1.1-.7-.3-1-4.5-1-3.3 0-6.7.5-7.5 1zM105.9 51.7c-3 .7-5.3 9.3-2.9 10.8.6.4 2.7-.3 4.6-1.4 4.2-2.5 4.4-2.5 4.4-.6 0 .8.5 1.5 1 1.5 1.2 0 2.4-2.7 3.5-7.9.9-4.2-.5-3.9-3.7.8-1.3 1.9-3.3 4.1-4.5 4.9-2.1 1.3-2.3 1.3-3-.4-.4-1 .1-3 1.1-4.7 1.8-3.3 1.8-3.5-.5-3zM29.1 71.6c-1.9.8-4.1 2.4-4.9 3.6-1.5 2.1-1.5 2.1-4.2-1.2-2.6-3.2-2.9-3.3-5.7-2.1l-3 1.2 2.9 3.1c1.5 1.6 2.8 3.5 2.8 4.2 0 .6-2.6 3-5.7 5.3C8.2 88.1 6.2 90 6.7 90c2.7 0 7.3-2.4 8.8-4.6 2.1-3.2 2.9-3 5.5 1.1 2.1 3.4 2.1 3.4 5.4 1.9l3.2-1.6-3.4-3.6-3.3-3.7 2.3-2c1.3-1.1 4-3.2 5.9-4.7 3.8-3 3.1-3.5-2-1.2zM43.5 71.5l-4 1.3 3.2.1c5.4.2 8.4 5 6.1 9.7-1.7 3.6-3.9 4.8-7.1 4-3.5-.8-4.6-5-2.4-8.8 2.1-3.6.6-3.6-3.6.2-4.1 3.6-5.1 7.3-2.7 10.2 2.1 2.7 6.6 2.6 12.4-.1 8.3-4.1 12.4-10.8 8.9-14.9-2.4-2.8-5.9-3.4-10.8-1.7zM70.4 71c-1.1.4-2.8 1.9-3.7 3.3-.9 1.4-4.2 5.3-7.4 8.8-4.8 5.2-5.4 6.1-3.3 5.6 1.4-.4 2.8-.7 3.2-.7.4 0 2.6-2.7 4.8-6 2.2-3.3 4.4-6 4.9-6 .4 0 1.5 2.6 2.4 5.7 2.3 8.1 2.8 8.7 6 7.2 2.3-1.1 2.4-1.4 1.2-3.3-.8-1.1-2.1-5.1-3.1-8.9-.9-3.7-1.9-6.7-2.3-6.6-.3 0-1.5.4-2.7.9zM89.7 71.6c-2.1 1.2-2.6 2-2.1 3.8.4 1.6-.5 4.4-2.5 8.5L82 90l3.4-1.7c2.2-1 3.7-2.6 4.1-4.2l.7-2.6 2 2.8c2.5 3.5 6.1 3.5 11.1.2l3.7-2.6.6 4c.6 4 .6 4 3.4 2.6 2.6-1.3 2.7-1.7 2-5.6-.9-4.7-.4-7.7 1.8-10.2 1.7-1.9.6-2.2-3.1-.8-1.4.6-2.8 1.9-3.2 3-.3 1.2-1.8 3.5-3.2 5.1-4.6 5.5-8.9 3.3-11.7-5.9-1.1-3.9-1.1-3.9-3.9-2.5zM131.1 71.1c-1.4.6-3.1 2-4 3.2-.8 1.2-4.2 5.1-7.5 8.6-5.8 6-5.9 6.4-3.1 5.7 1.7-.4 3.5-1.4 4.1-2.2.7-.9 3-1.4 6.6-1.4 4.9 0 5.6.3 6.6 2.5.6 1.4 1.5 2.5 1.9 2.5 1.4-.1 5.9-2.9 4.7-3-1.4 0-2.9-3.6-4.5-10.5-1.4-6.1-1.8-6.5-4.8-5.4zm-.2 7.9 1 3h-8.3l2.9-3c1.6-1.7 3-3 3.1-3 .1 0 .7 1.3 1.3 3z"
          class="letter"/>
</svg>