<svg xmlns="http://www.w3.org/2000/svg" xml:space="preserve"
     style="fill-rule:evenodd;clip-rule:evenodd;stroke-linejoin:round;stroke-miterlimit:1.41421" viewBox="0 0 24 24"><path d="M12 0C5.374 0 0 5.372 0 12c0 6.627 5.374 12 12 12 6.627 0 12-5.373 12-12 0-6.628-5.373-12-12-12Zm3.224 17.871c.188.133.43.166.646.085a.6785.6785 0 0 0 .422-.491c.507-2.382 1.737-8.412 2.198-10.578a.4567.4567 0 0 0-.151-.443.4702.4702 0 0 0-.465-.082c-2.446.906-9.979 3.732-13.058 4.871a.484.484 0 0 0-.316.467c.007.206.146.385.346.445 1.381.413 3.193.988 3.193.988s.847 2.558 1.288 3.858c.056.164.184.292.352.336.169.044.348-.002.474-.121.709-.669 1.805-1.704 1.805-1.704s2.084 1.527 3.266 2.369Zm-6.423-5.062.98 3.231.218-2.046s3.783-3.413 5.941-5.358a.1624.1624 0 0 0 .019-.22.165.165 0 0 0-.219-.037l-6.939 4.43Z"/></svg>