<?xml version="1.0" standalone="no"?>
<svg version="1.0" xmlns="http://www.w3.org/2000/svg"
 width="1032.000000pt" height="1280.000000pt" viewBox="0 0 1032.000000 1280.000000"
 preserveAspectRatio="xMidYMid meet">
<g transform="translate(0.000000,1280.000000) scale(0.100000,-0.100000)"
fill="#000000" stroke="none">
<path d="M3675 12755 c-82 -24 -166 -51 -187 -59 -53 -23 -87 -29 -503 -96
-415 -66 -487 -81 -555 -115 -71 -36 -130 -83 -130 -104 0 -31 23 -31 91 -1
71 31 215 57 504 90 227 26 377 52 485 85 47 14 203 55 348 90 145 36 282 73
305 83 l42 19 -60 12 c-33 7 -83 19 -112 27 -28 8 -57 14 -65 14 -7 -1 -80
-21 -163 -45z"/>
<path d="M4128 12784 c-14 -14 -8 -43 10 -52 9 -5 40 -14 68 -20 64 -14 257
-88 352 -136 39 -20 133 -76 207 -126 74 -49 165 -106 201 -126 42 -24 69 -46
76 -63 19 -48 25 -56 49 -61 15 -4 31 -20 41 -41 14 -30 27 -40 77 -58 141
-51 294 -211 416 -436 116 -213 153 -473 104 -723 -12 -59 -25 -111 -30 -116
-14 -15 -180 10 -354 54 -360 90 -542 131 -778 174 -400 74 -878 184 -990 227
-69 27 -169 96 -277 191 -119 105 -179 180 -205 254 -20 59 -26 64 -100 96
-16 7 -45 37 -65 67 -25 38 -46 57 -70 65 -26 8 -37 19 -44 44 -8 28 -21 38
-90 72 -91 45 -190 70 -208 52 -19 -19 0 -40 76 -82 83 -46 84 -47 132 -126
37 -62 40 -76 21 -92 -9 -8 -33 -2 -87 22 -138 60 -158 74 -181 119 -12 23
-54 84 -93 135 l-71 93 -3 -55 c-7 -125 105 -266 328 -416 141 -95 198 -172
185 -250 -4 -22 -27 -70 -51 -107 -25 -38 -51 -90 -59 -117 -17 -58 -41 -263
-32 -273 4 -3 22 2 40 12 32 17 34 17 73 -3 22 -11 59 -41 81 -65 42 -46 44
-51 100 -246 24 -87 51 -106 143 -106 59 0 73 3 92 23 29 28 19 47 -44 82 -87
48 -105 82 -76 144 24 54 73 40 125 -34 26 -37 107 -89 119 -77 11 11 -64 153
-94 179 -17 14 -53 34 -79 44 -61 22 -109 57 -128 94 -8 16 -15 31 -15 35 0 9
148 5 175 -5 15 -6 32 -24 40 -43 17 -40 36 -58 102 -91 59 -29 104 -33 123
-11 7 9 16 52 19 97 l6 82 72 19 72 18 40 -27 c23 -14 58 -52 78 -83 69 -103
223 -486 223 -554 0 -33 -36 -116 -62 -144 -12 -13 -31 -23 -42 -23 -44 0 -68
-14 -86 -49 -10 -21 -37 -50 -59 -65 -23 -16 -41 -34 -41 -41 0 -6 -9 -20 -20
-30 -16 -15 -20 -31 -20 -88 0 -62 -2 -68 -17 -61 -10 4 -35 9 -55 12 l-38 4
0 -80 c0 -45 6 -98 15 -122 23 -65 64 -340 51 -340 -3 0 -17 22 -33 50 -15 27
-31 50 -34 50 -13 0 -15 -85 -8 -245 3 -88 6 -161 5 -162 -1 -1 -21 64 -45
145 -54 183 -96 294 -119 316 -16 13 -21 14 -37 2 -16 -11 -16 -17 -7 -46 17
-47 17 -46 -34 -66 -88 -34 -92 -40 -86 -149 6 -122 -6 -124 -73 -14 -64 106
-83 121 -154 117 -49 -3 -56 -6 -59 -26 -4 -30 112 -260 149 -294 21 -20 40
-28 67 -28 61 1 95 40 127 148 10 34 21 59 25 55 4 -4 12 -39 18 -77 24 -152
91 -117 75 39 -4 35 -2 55 5 55 16 0 55 -159 58 -244 3 -89 14 -107 73 -124
76 -23 121 -7 121 42 0 33 30 55 97 72 32 9 155 46 273 84 201 64 439 130 825
230 247 63 411 109 515 142 91 28 100 29 208 23 l114 -7 -7 -27 c-4 -14 -7
-27 -8 -27 -36 -28 -147 -63 -442 -139 -77 -20 -239 -69 -360 -110 -368 -124
-1329 -408 -1374 -408 -36 1 -61 23 -61 53 0 18 -28 46 -72 73 -15 10 -34 30
-43 47 -10 20 -27 32 -53 39 -31 8 -209 31 -242 31 -6 0 -8 10 -5 23 6 23 -8
46 -145 240 l-54 78 -17 -49 c-9 -27 -22 -59 -28 -70 -9 -18 -7 -30 16 -70 30
-55 27 -77 -14 -93 -63 -24 -169 18 -180 72 -12 62 -67 64 -96 4 -11 -23 -29
-41 -50 -50 -38 -16 -57 -5 -57 32 0 69 -57 87 -91 28 -24 -40 -71 -59 -134
-53 -42 3 -48 15 -31 66 7 21 5 22 -52 22 l-60 0 10 41 c9 31 22 49 62 78 89
67 79 65 286 51 303 -21 387 -4 432 88 22 45 23 55 21 266 -2 121 1 224 6 230
17 21 31 161 38 372 3 116 3 222 -1 237 -9 39 -53 85 -107 112 -27 14 -51 25
-53 25 -9 0 17 -64 40 -100 12 -19 30 -68 40 -109 19 -82 21 -76 -44 -113 -58
-31 -67 -59 -65 -190 l1 -117 -42 -6 c-32 -5 -54 -1 -96 18 -84 37 -103 64
-111 152 -7 88 -20 107 -99 142 -64 28 -84 45 -116 96 -14 20 -28 37 -33 37
-4 0 -13 -17 -19 -39 -18 -58 -47 -88 -105 -107 -41 -13 -69 -34 -128 -93 -41
-42 -99 -107 -128 -146 l-53 -70 4 -92 c4 -107 17 -133 91 -173 70 -39 97 -68
97 -106 0 -29 -6 -37 -45 -60 -28 -16 -47 -35 -51 -51 -4 -14 -22 -44 -40 -68
-45 -60 -59 -89 -78 -171 -16 -66 -24 -83 -68 -145 -18 -26 -21 -42 -19 -107
l1 -44 123 6 122 6 -45 -21 -44 -22 23 -18 c41 -33 100 -42 298 -43 l193 -1
25 -27 c15 -16 37 -29 53 -29 15 -1 117 -2 227 -3 110 -1 309 -8 443 -16 l242
-14 0 -77 c0 -95 -15 -170 -41 -203 -10 -13 -54 -39 -96 -56 -43 -18 -108 -53
-145 -79 -145 -99 -207 -133 -344 -187 -129 -52 -146 -61 -172 -98 -16 -23
-105 -131 -197 -241 -93 -110 -188 -230 -212 -268 -34 -51 -55 -72 -87 -88
-78 -36 -337 -309 -440 -463 -67 -100 -153 -272 -258 -515 -44 -102 -95 -214
-114 -248 -31 -55 -83 -113 -103 -113 -4 0 -8 -55 -8 -122 -1 -132 -2 -139
-117 -648 -59 -264 -90 -459 -191 -1224 -125 -938 -176 -1227 -232 -1313 -12
-18 -13 -26 -3 -38 17 -20 77 -30 104 -17 40 18 57 110 161 877 155 1141 187
1343 291 1843 103 498 183 791 256 936 69 137 264 476 311 541 118 164 351
419 437 478 61 42 77 63 96 124 16 53 43 83 77 83 12 0 24 15 37 46 11 25 58
92 105 148 l85 104 97 6 c54 3 168 8 253 11 489 18 728 39 818 73 28 11 90 41
139 68 48 26 138 71 198 99 133 62 410 220 640 365 94 59 197 124 229 145 l60
37 33 -36 c19 -20 36 -36 37 -36 2 0 30 16 62 35 63 38 122 46 144 20 18 -22
56 -18 79 7 11 12 28 46 36 77 41 146 64 181 122 181 32 0 44 8 89 54 41 43
63 58 107 71 69 20 103 46 110 85 9 41 54 66 135 74 37 4 79 9 94 12 28 6 26
2 84 159 20 55 42 106 50 114 18 19 39 0 110 -101 30 -42 70 -89 89 -105 86
-68 91 -76 110 -186 4 -27 13 -40 30 -47 17 -6 27 -22 35 -52 35 -134 41 -149
70 -166 38 -22 41 -29 47 -144 5 -75 3 -98 -7 -98 -27 0 -154 76 -210 126 -71
63 -97 70 -320 83 l-155 9 -100 -52 c-122 -63 -487 -302 -609 -399 -54 -44
-109 -99 -142 -142 -38 -52 -61 -74 -85 -81 -23 -7 -39 -21 -54 -49 -28 -54
-245 -311 -475 -565 -347 -383 -384 -429 -420 -534 -23 -63 -46 -206 -38 -228
3 -7 29 -22 58 -32 49 -18 76 -19 414 -13 198 4 411 9 471 12 l110 6 -167 -59
c-129 -46 -262 -107 -580 -265 -227 -114 -446 -228 -486 -254 l-73 -48 3 -100
c4 -140 14 -156 163 -264 l120 -87 -4 -39 c-2 -24 -14 -53 -31 -75 -56 -71
-98 -185 -86 -233 3 -14 18 -27 40 -35 33 -12 35 -16 55 -103 12 -50 21 -99
21 -110 0 -34 -27 -75 -79 -120 -68 -61 -92 -106 -99 -185 l-5 -65 51 -52 c32
-33 54 -64 58 -85 6 -31 5 -33 -35 -49 -37 -15 -43 -21 -56 -67 -43 -156 -45
-179 -12 -214 21 -23 22 -32 27 -255 3 -159 9 -239 17 -254 21 -35 65 -61 131
-74 73 -15 77 -27 36 -105 -28 -50 -53 -146 -54 -200 0 -57 45 -127 120 -185
l69 -54 1 -65 c0 -82 -15 -137 -41 -151 -40 -21 -49 -67 -49 -253 0 -260 24
-362 95 -406 28 -17 35 -28 35 -52 0 -25 -13 -44 -69 -99 -76 -75 -87 -102
-72 -170 12 -51 14 -126 5 -232 l-7 -77 -35 -10 c-19 -5 -52 -23 -73 -40 -48
-38 -110 -65 -207 -89 -122 -30 -150 -33 -280 -33 -137 1 -168 -6 -182 -43 -8
-21 -16 -25 -52 -25 -53 0 -62 6 -81 52 -16 39 -52 61 -122 74 l-35 6 -38 -83
c-21 -46 -47 -105 -57 -131 -17 -47 -19 -48 -60 -48 -23 0 -56 5 -73 11 -32
11 -35 17 -56 110 -8 37 -29 39 -137 18 -112 -21 -173 -23 -234 -7 -54 14 -65
6 -84 -59 -14 -50 -46 -71 -119 -79 -76 -8 -110 16 -147 104 -17 41 -37 77
-45 82 -8 4 -58 17 -110 28 -106 23 -139 17 -151 -28 -11 -38 -10 -449 1 -590
12 -146 5 -173 -45 -190 -49 -16 -82 1 -106 54 -21 49 -39 217 -39 383 0 135
-13 197 -46 212 -21 9 -44 46 -44 71 0 5 7 16 16 25 12 12 27 14 60 9 24 -3
44 -4 44 -1 0 5 -44 75 -95 150 -15 22 -43 46 -68 57 -49 23 -136 26 -175 6
-73 -36 -215 -49 -255 -23 -12 8 -33 37 -46 65 -27 57 -39 64 -151 82 -115 18
-139 15 -158 -22 -66 -124 -164 -118 -249 14 -47 72 -66 86 -156 109 -82 21
-104 86 -35 102 22 5 40 16 43 27 12 37 -15 102 -60 146 -88 85 -87 217 2 252
15 6 61 20 101 32 39 11 72 26 72 33 0 7 -9 58 -20 115 -24 123 -24 133 -6
158 15 19 15 19 36 -1 11 -12 24 -41 28 -65 l8 -45 18 58 c9 33 16 71 14 85
-3 24 -8 27 -45 30 -23 2 -74 -6 -113 -18 l-70 -21 0 -114 c0 -62 -3 -120 -6
-129 -3 -8 -25 -24 -48 -35 -50 -25 -71 -57 -91 -142 -22 -97 -19 -131 20
-209 34 -68 44 -110 26 -110 -37 0 -49 -59 -35 -164 8 -55 14 -59 128 -90 107
-30 142 -49 154 -86 16 -45 56 -80 92 -80 53 0 173 32 210 55 19 13 52 29 73
36 76 27 87 -16 85 -326 -1 -156 -3 -209 -8 -165 -4 36 -8 124 -9 196 0 72 -4
159 -7 193 -7 59 -8 61 -35 61 -53 0 -62 -37 -89 -409 -18 -242 -15 -286 24
-368 19 -39 45 -78 58 -86 35 -22 109 -36 263 -47 256 -19 359 -40 439 -89 52
-33 69 -56 57 -79 -15 -28 -66 -46 -252 -87 -174 -38 -398 -101 -412 -115 -5
-4 10 -11 34 -15 88 -15 163 -46 195 -80 42 -44 60 -48 487 -95 123 -14 158
-21 154 -33 -5 -18 57 -37 298 -91 138 -31 374 -87 525 -125 l275 -68 8 76 c9
91 24 116 72 125 29 6 39 14 51 41 16 39 42 59 144 110 72 36 77 37 148 31 98
-9 291 -65 385 -112 18 -9 52 -37 77 -63 42 -44 51 -49 130 -65 47 -10 97 -24
111 -32 22 -11 68 -11 295 1 389 21 544 35 578 49 17 8 69 41 116 75 47 33 94
61 105 61 11 -1 47 -7 80 -15 33 -8 85 -15 117 -15 53 0 57 2 76 34 28 47 63
52 334 48 150 -2 248 2 320 12 153 22 174 23 678 56 689 45 890 67 1105 121
162 40 435 132 526 177 64 32 77 43 96 82 12 25 28 74 36 110 12 58 11 70 -4
110 -19 51 -51 74 -125 91 -27 6 -224 14 -439 17 -214 4 -396 11 -403 16 -11
6 -9 12 6 30 11 11 27 37 35 57 21 50 53 59 221 59 221 1 238 9 291 141 31 77
55 104 101 113 53 12 68 38 72 126 2 43 -1 86 -6 96 -8 14 -5 25 14 47 15 18
24 41 24 62 0 22 6 35 17 39 10 4 171 4 358 0 l340 -6 114 26 c129 31 297 49
591 67 l205 12 170 85 c94 46 191 100 217 119 66 48 116 121 144 209 28 86 30
122 9 130 -8 3 -19 22 -24 43 -36 132 -103 582 -226 1506 -133 999 -190 1391
-251 1720 -37 201 -42 307 -14 352 8 12 31 30 53 39 95 43 147 155 207 444 13
58 33 128 45 155 13 28 31 87 41 132 l17 81 -26 32 c-36 42 -47 92 -46 192 1
47 -1 90 -5 97 -4 6 -22 18 -39 27 -18 9 -44 28 -59 42 -27 24 -28 30 -28 116
0 97 13 143 25 90 24 -104 36 -139 56 -160 26 -28 51 -31 75 -7 14 14 16 31
11 112 -2 53 -14 130 -26 171 -11 41 -45 226 -76 410 -65 400 -81 467 -137
572 -49 91 -81 123 -141 139 -54 14 -99 6 -140 -25 -19 -14 -39 -26 -45 -26
-6 0 -24 17 -39 38 -35 47 -42 52 -74 52 -19 0 -29 -8 -40 -32 -12 -29 -21
-34 -64 -41 -27 -5 -60 -11 -71 -13 -12 -2 -27 -17 -34 -34 -7 -16 -32 -46
-57 -66 -25 -21 -61 -61 -79 -90 -19 -30 -43 -58 -55 -64 -11 -6 -59 -15 -106
-20 -120 -13 -144 -31 -157 -123 -4 -27 -14 -51 -21 -54 -8 -3 -119 2 -248 11
-326 23 -340 19 -387 -91 -12 -28 -28 -54 -35 -57 -7 -2 -64 6 -126 18 -165
34 -211 39 -242 27 -21 -8 -28 -17 -25 -33 3 -24 42 -31 335 -64 86 -9 117 5
139 63 10 25 27 51 38 58 15 9 89 15 244 19 307 9 320 12 390 105 18 23 35 32
80 40 131 25 156 37 228 112 82 83 182 139 250 139 64 0 78 -19 71 -100 -8
-98 -54 -210 -166 -404 l-100 -174 -11 -403 c-11 -458 -17 -571 -32 -616 -13
-35 -4 -129 37 -392 32 -201 42 -213 251 -281 63 -21 117 -40 121 -43 12 -13
-8 -54 -31 -65 -14 -6 -49 -14 -78 -18 -83 -10 -90 -19 -36 -43 73 -31 84 -57
91 -214 6 -135 18 -195 61 -304 l24 -62 -44 -33 c-56 -42 -89 -105 -79 -154 6
-35 27 -58 124 -141 30 -26 33 -33 26 -62 -5 -22 -18 -39 -40 -53 -47 -27 -59
-70 -46 -154 6 -39 20 -82 34 -103 25 -38 67 -116 67 -126 0 -3 -14 -5 -31 -5
-17 0 -38 -4 -48 -10 -29 -15 -53 -88 -58 -176 -5 -75 -4 -82 17 -97 29 -20
41 -77 34 -163 -8 -89 9 -213 45 -334 27 -93 28 -97 15 -190 -22 -163 -15
-222 28 -236 26 -8 50 -59 46 -101 -3 -34 -5 -36 -66 -55 -81 -25 -98 -47 -81
-114 12 -45 11 -49 -10 -63 -69 -48 -82 -65 -88 -118 l-6 -53 -68 0 c-83 0
-116 -12 -129 -45 -12 -31 -27 -32 -183 -4 -102 19 -124 20 -157 9 -36 -12
-42 -11 -84 14 -39 23 -47 33 -60 80 -33 111 -19 144 69 167 71 18 96 31 110
60 13 24 12 36 -4 101 -25 96 -109 311 -206 523 -121 267 -175 419 -175 496 0
54 9 64 74 79 86 19 113 36 151 93 42 63 59 120 79 267 30 208 51 566 38 635
-6 34 -11 40 -35 43 l-27 3 0 -89 c0 -49 -5 -181 -11 -292 -21 -413 -57 -481
-253 -482 -127 0 -144 22 -231 284 -30 91 -81 235 -114 320 -33 84 -73 203
-89 265 l-30 112 376 -2 c417 -2 416 -2 459 61 24 36 45 101 64 202 10 54 14
61 23 45 19 -33 57 -64 94 -76 21 -6 45 -19 56 -28 18 -15 18 -15 12 9 -7 24
-22 39 -85 88 -16 12 -32 35 -36 51 -7 32 -29 55 -62 65 -56 17 -85 -19 -104
-130 -14 -82 -28 -113 -68 -147 -61 -51 -119 -62 -311 -61 -297 2 -455 43
-560 145 -25 24 -84 105 -130 179 -96 155 -148 229 -199 284 -28 30 -249 214
-405 338 -11 9 -19 18 -16 21 3 2 27 18 53 36 26 18 66 56 88 84 23 29 85 94
139 145 155 146 178 217 143 444 l-19 116 29 6 c16 3 113 6 216 6 195 0 263
-8 451 -54 163 -40 315 -64 567 -91 128 -14 235 -25 238 -25 15 0 2 49 -17 67
-51 47 -220 114 -450 178 -270 77 -447 96 -838 93 -118 -1 -238 1 -267 6 l-52
8 -69 141 c-74 152 -89 171 -149 193 -45 16 -156 18 -183 4 -10 -6 -40 -38
-66 -73 -72 -94 -198 -246 -202 -242 -2 1 -12 65 -23 141 -37 263 -61 379
-110 527 -27 82 -49 159 -49 172 0 13 11 37 25 53 14 17 46 68 71 114 82 149
96 151 168 31 59 -97 70 -103 201 -103 l92 0 84 -57 c103 -70 183 -98 318
-114 140 -16 270 -8 346 21 62 24 82 25 290 19 102 -3 115 -1 180 25 39 16 82
37 97 48 15 10 53 30 85 45 70 31 113 69 113 99 0 43 30 63 119 81 89 17 151
56 151 93 0 25 -24 31 -49 13 -33 -22 -151 -54 -196 -52 -61 3 -64 1 -79 -35
-8 -19 -33 -47 -58 -64 -23 -16 -58 -48 -76 -71 -42 -53 -91 -67 -282 -80 -80
-6 -217 -21 -305 -35 -224 -35 -343 -49 -370 -42 -17 4 -25 14 -27 34 -4 34
-35 41 -74 16 -26 -18 -27 -18 -50 10 -31 36 -32 73 -2 78 13 2 29 15 36 30
17 36 29 37 307 42 276 4 349 16 485 83 72 35 109 61 152 105 48 50 67 62 115
75 78 20 105 35 171 97 81 74 163 133 194 141 23 6 35 0 80 -43 55 -52 143
-102 178 -102 13 0 24 9 30 25 6 15 20 27 37 30 64 13 76 20 87 54 8 25 20 37
41 44 46 15 52 23 80 106 28 85 59 124 99 124 35 0 54 -19 62 -59 8 -42 24
-51 100 -60 77 -9 109 -39 101 -92 -8 -48 -31 -69 -129 -117 -96 -46 -123 -82
-110 -145 12 -57 44 -52 133 18 123 98 145 133 156 245 7 77 -13 131 -54 149
-42 18 -73 49 -73 73 0 52 -82 76 -183 55 -65 -13 -113 -48 -122 -88 -12 -57
-40 -88 -90 -101 -44 -11 -47 -15 -75 -76 -22 -49 -35 -66 -55 -71 -38 -9 -81
13 -122 63 -20 24 -53 53 -74 63 -62 32 -61 41 12 170 30 53 71 153 109 264
63 187 89 242 136 290 52 51 75 57 223 59 155 2 170 7 220 80 51 75 65 134 58
255 -10 184 -47 305 -127 425 -68 101 -211 258 -317 349 -50 43 -105 100 -123
128 -37 58 -72 80 -127 80 l-38 0 -74 228 c-109 340 -125 377 -188 443 -93 98
-232 139 -468 140 -149 1 -252 -13 -422 -57 -235 -61 -286 -88 -311 -170 -6
-21 -10 -39 -9 -41 2 -1 46 16 98 38 169 74 492 141 744 155 143 9 202 -7 262
-68 54 -55 81 -112 191 -393 136 -350 153 -379 265 -453 135 -89 356 -332 412
-454 48 -105 74 -252 75 -417 0 -86 -4 -112 -21 -148 l-21 -43 -63 0 c-38 0
-67 5 -71 12 -4 6 -10 64 -14 129 -8 145 -21 169 -92 169 -30 0 -47 -9 -89
-46 l-53 -47 -85 6 c-151 10 -144 5 -251 184 -139 236 -206 328 -305 425 -63
60 -106 114 -140 170 -75 129 -110 178 -167 241 l-53 58 -78 -25 c-92 -28
-121 -46 -141 -84 -10 -20 -34 -37 -78 -56 -93 -39 -145 -68 -223 -122 -208
-146 -415 -262 -647 -364 -82 -36 -96 -45 -88 -59 8 -17 42 -297 76 -641 9
-91 17 -166 19 -168 10 -10 66 183 79 270 20 136 39 403 31 444 -6 32 13 64
37 64 6 0 52 26 102 59 50 32 155 97 234 145 l143 86 258 0 c447 0 533 -18
614 -129 23 -31 64 -104 92 -161 41 -86 50 -115 50 -159 0 -52 -2 -57 -33 -76
-18 -11 -55 -34 -82 -52 -41 -26 -63 -32 -133 -38 -154 -13 -181 22 -183 235
-1 189 -1 187 -18 170 -18 -19 -49 -253 -50 -381 -1 -106 6 -124 55 -134 27
-6 29 -10 29 -53 0 -66 17 -120 43 -136 29 -18 231 -46 332 -46 75 0 84 2 145
39 40 24 80 59 105 92 39 51 44 54 91 57 110 6 139 -67 111 -288 -25 -195 -49
-276 -96 -321 -23 -23 -66 -90 -109 -175 -105 -203 -173 -287 -205 -255 -5 5
-17 32 -26 58 -13 37 -23 51 -50 64 -37 17 -48 34 -85 134 -14 37 -46 97 -70
134 -24 36 -51 81 -60 99 -19 37 -40 185 -34 243 l4 39 -38 0 c-31 0 -40 -5
-53 -29 -21 -41 -92 -55 -275 -56 -130 0 -150 2 -194 22 l-48 23 6 -33 c5 -26
1 -42 -18 -69 -15 -22 -22 -45 -19 -60 6 -31 -15 -48 -74 -59 -57 -11 -66 -19
-94 -77 -13 -26 -33 -63 -45 -82 -13 -19 -37 -87 -53 -150 -17 -63 -36 -132
-41 -153 l-11 -38 -49 41 c-51 43 -94 64 -159 79 -29 6 -41 6 -41 -3 0 -29
-22 -86 -33 -86 -7 0 -25 25 -40 55 -32 67 -53 70 -133 24 -80 -45 -109 -51
-162 -33 -30 10 -63 13 -101 9 -80 -8 -103 6 -116 74 -11 58 -40 91 -82 91
-16 0 -37 13 -57 34 -129 139 -132 142 -185 159 -109 35 -163 16 -176 -60 -9
-53 -26 -106 -38 -121 -17 -22 -84 -52 -115 -52 -22 0 -31 7 -43 32 -12 27
-25 35 -89 56 -70 23 -80 23 -160 13 -115 -15 -444 -89 -999 -226 -255 -63
-477 -115 -492 -115 -42 0 -38 31 15 117 24 40 50 89 56 110 7 21 26 73 42
116 24 64 33 77 46 71 10 -4 50 -13 91 -21 66 -13 85 -13 165 1 106 18 223 55
316 99 88 43 234 184 249 242 13 50 40 322 43 437 l3 88 77 -6 c63 -6 82 -4
103 10 14 9 25 23 25 31 0 18 -14 19 138 -5 165 -26 226 -55 264 -125 36 -64
65 -156 84 -265 17 -99 12 -138 -21 -150 -37 -14 -45 -133 -9 -147 23 -8 67
26 117 91 43 57 47 68 47 117 0 144 -48 364 -96 436 -19 30 -18 100 7 283 11
85 23 234 26 330 4 154 2 188 -17 280 -34 167 -121 328 -293 542 -83 104 -112
128 -332 285 -93 67 -212 153 -264 191 -101 75 -339 210 -460 261 -130 55
-350 99 -373 75z m-1071 -1275 c51 -19 113 -92 113 -133 0 -18 -51 -45 -130
-71 -83 -27 -130 -53 -142 -80 -14 -31 -65 -34 -99 -6 l-23 18 47 50 c37 39
49 61 57 104 16 79 26 98 63 114 39 17 76 19 114 4z m1730 -690 c47 -15 114
-95 169 -205 49 -96 49 -97 52 -208 3 -74 -2 -136 -12 -186 -29 -139 -144
-328 -225 -369 -20 -10 -58 -23 -86 -29 -76 -16 -274 -34 -330 -30 l-50 3 -35
64 c-56 103 -82 104 -111 3 -19 -69 -29 -59 -29 30 0 86 8 108 41 108 52 0 56
109 15 388 -14 96 -26 176 -26 178 0 10 88 3 104 -9 10 -7 34 -44 55 -83 30
-57 40 -69 61 -69 22 0 28 9 48 65 36 103 43 104 91 21 51 -86 91 -190 91
-234 0 -44 -25 -122 -50 -157 -24 -33 -38 -90 -22 -90 27 0 224 71 260 94 46
29 73 88 93 201 30 173 -4 228 -162 264 -130 30 -127 29 -168 67 -21 18 -60
43 -87 55 -44 19 -47 22 -30 33 21 12 34 26 70 70 16 21 35 31 67 37 51 8 160
2 206 -12z m-954 -881 c45 -48 77 -101 77 -128 0 -13 -65 -13 -89 0 -21 11
-55 87 -65 143 -10 54 16 49 77 -15z m4025 -159 c2 -19 -3 -48 -9 -65 -13 -29
-13 -29 -19 26 -4 30 -5 61 -2 68 8 24 27 6 30 -29z m-5722 -104 c-12 -9 -39
-14 -65 -14 l-46 1 50 13 c70 18 85 18 61 0z m5384 -144 c0 -57 -4 -82 -15
-91 -19 -16 -35 -4 -35 26 0 39 33 154 42 148 4 -3 8 -40 8 -83z m-5371 -44
c-22 -18 -103 -69 -138 -86 -30 -16 -47 -19 -54 -12 -15 15 6 56 40 78 30 20
175 38 152 20z m5861 -106 c40 -17 99 -48 131 -71 32 -22 79 -50 104 -61 36
-16 45 -25 45 -44 0 -14 -9 -34 -20 -45 -18 -18 -22 -18 -67 -5 -26 8 -120 25
-209 39 -173 28 -232 44 -248 68 -14 23 -1 44 33 51 18 4 37 17 47 34 47 75
72 79 184 34z m-1273 -85 c-2 -6 -13 -12 -25 -14 -18 -3 -22 2 -22 26 0 16 3
32 7 36 10 9 45 -33 40 -48z m230 -28 c27 -25 84 -139 86 -175 3 -43 -31 -54
-128 -42 -134 15 -125 9 -125 87 0 86 22 133 69 148 41 13 68 8 98 -18z
m-1887 -111 c-9 -7 -61 -49 -116 -93 -55 -45 -156 -121 -225 -170 -68 -48
-146 -107 -174 -130 -27 -23 -99 -68 -160 -100 -60 -32 -146 -80 -190 -108
-116 -72 -209 -113 -495 -216 -220 -80 -272 -96 -380 -111 -165 -24 -454 -57
-459 -53 -2 2 1 22 8 44 9 30 25 50 64 79 68 50 210 126 267 142 61 17 84 40
110 110 29 81 69 109 229 158 69 22 259 81 421 131 162 50 450 142 640 205
390 128 369 122 430 124 37 0 42 -2 30 -12z m2125 -257 c44 -57 88 -140 80
-149 -10 -9 -129 44 -155 70 -41 41 -49 106 -17 146 14 19 40 0 92 -67z m-836
-97 c95 -106 191 -292 231 -447 33 -131 64 -512 55 -685 -3 -53 -10 -240 -15
-416 -21 -646 -48 -824 -157 -1038 -30 -59 -145 -234 -211 -321 -117 -153
-437 -495 -572 -611 -147 -126 -162 -156 -240 -455 l-45 -175 -33 -3 c-41 -4
-55 7 -88 69 -16 29 -37 51 -53 57 -14 6 -48 18 -76 27 -27 10 -61 26 -75 36
-26 17 -30 24 -69 110 -24 52 -62 78 -156 104 -82 24 -115 41 -145 77 -31 36
-69 45 -161 38 -45 -3 -69 -2 -69 5 0 24 61 104 125 164 78 73 143 117 197
133 48 14 78 42 78 72 0 49 57 48 273 -8 102 -26 167 -39 167 -32 0 15 -48
164 -60 186 -5 10 -23 23 -39 28 -42 15 -48 59 -27 190 21 124 38 181 74 234
22 34 26 52 29 141 2 56 9 112 15 124 6 13 31 30 57 39 25 10 49 20 52 23 4 3
1 51 -7 106 -17 124 -17 224 -2 299 13 68 -1 269 -33 454 -23 135 -24 286 -4
432 20 150 38 210 100 338 30 61 52 112 49 112 -3 0 -21 -7 -40 -16 -39 -18
-88 -88 -150 -213 -83 -166 -105 -308 -95 -610 l6 -173 -29 -15 c-50 -26 -108
-43 -226 -68 -228 -47 -374 -62 -683 -73 -178 -6 -197 -5 -197 9 0 9 7 56 15
105 22 123 46 160 135 209 76 42 92 58 135 145 15 30 52 84 82 119 29 35 60
78 68 97 10 25 22 35 52 43 30 8 44 21 67 58 70 114 210 274 284 327 31 22 49
42 54 64 7 24 23 42 61 66 29 18 120 89 202 156 234 192 463 337 637 402 73
28 100 32 218 37 157 7 167 4 239 -76z m3370 -16 c6 -8 14 -27 17 -44 5 -27 1
-33 -45 -66 -39 -28 -54 -47 -68 -86 -37 -104 -60 7 -27 132 9 34 18 65 20 69
9 13 91 9 103 -5z m81 -296 c0 -10 -7 -26 -15 -37 -13 -18 -14 -15 -15 30 0
42 2 47 15 36 8 -7 15 -20 15 -29z m-203 -88 c31 -15 58 -32 60 -38 2 -6 -40
-10 -112 -10 -63 0 -115 1 -115 1 0 7 30 71 37 77 13 14 68 1 130 -30z m37
-205 c37 -13 68 -27 67 -33 0 -10 -54 -18 -198 -28 l-83 -6 0 37 c0 21 6 44
13 51 17 18 116 8 201 -21z m246 -103 c7 -8 15 -36 18 -61 4 -41 3 -46 -14
-42 -10 2 -25 16 -32 31 -8 15 -32 41 -54 58 l-41 29 55 0 c37 0 60 -5 68 -15z
m-2611 -172 c194 -261 266 -453 259 -692 -4 -139 -6 -143 -106 -191 -95 -45
-119 -65 -154 -127 l-31 -56 -71 7 c-39 3 -141 16 -227 27 l-156 22 -7 120
c-15 289 -2 504 38 598 34 80 237 345 290 379 61 39 77 31 165 -87z m2611 -64
c39 -8 50 -15 50 -30 0 -15 -7 -19 -32 -20 -73 -2 -128 3 -223 22 -55 10 -101
19 -102 19 -2 0 -3 5 -3 10 0 14 245 13 310 -1z m73 -531 c11 -9 24 -58 42
-158 13 -80 30 -169 36 -198 11 -48 10 -55 -13 -90 -33 -49 -45 -86 -64 -195
-8 -50 -22 -106 -30 -125 -12 -29 -17 -33 -36 -27 -43 14 -71 7 -156 -37 l-84
-43 -137 -3 -137 -3 -53 41 c-54 43 -91 92 -91 122 0 38 77 62 335 104 175 28
260 53 260 74 0 23 -41 28 -250 29 -301 2 -367 18 -373 94 -2 25 3 42 17 56
29 29 134 56 308 80 184 26 241 44 254 79 5 13 8 26 7 27 -2 1 -111 -6 -243
-16 -132 -10 -259 -18 -283 -18 l-43 -1 33 61 c18 33 41 65 50 70 23 13 239
57 358 74 126 17 271 19 293 3z m-3018 -758 c167 -249 477 -878 652 -1325 105
-266 129 -340 313 -960 295 -995 393 -1345 410 -1466 14 -96 31 -123 75 -116
39 6 72 -13 87 -52 12 -30 58 -244 54 -248 -2 -2 -26 1 -54 7 -27 6 -69 10
-93 8 -39 -3 -44 -6 -51 -36 -12 -44 -44 -56 -114 -43 -68 13 -92 25 -125 64
l-26 30 -39 -19 c-21 -10 -52 -38 -69 -61 -16 -23 -35 -42 -41 -42 -15 -1 -24
-48 -24 -122 0 -51 3 -61 24 -74 39 -26 48 -68 54 -258 l5 -179 -60 -56 c-33
-32 -79 -85 -101 -118 -55 -82 -94 -101 -232 -113 -58 -5 -106 -8 -107 -7 -6
5 49 418 62 468 26 105 71 168 126 182 15 3 66 -4 118 -17 50 -13 93 -22 95
-20 6 6 -26 107 -42 131 -8 13 -37 34 -63 47 -41 21 -49 31 -62 72 -9 26 -20
86 -26 133 -8 58 -17 93 -31 110 -46 57 -56 98 -85 355 -34 299 -74 552 -190
1187 -166 909 -286 1492 -360 1748 -77 268 -118 452 -211 940 -4 22 -1 21 31
-15 20 -22 65 -83 100 -135z m104 134 c70 -41 229 -152 295 -206 32 -27 73
-55 91 -62 38 -16 49 -30 173 -221 239 -365 369 -614 524 -1000 57 -141 107
-281 243 -675 78 -224 166 -448 292 -740 151 -350 163 -389 125 -423 -9 -9
-45 -28 -80 -44 -60 -27 -65 -32 -106 -108 -33 -59 -49 -79 -63 -78 -129 17
-165 27 -173 47 -5 11 -42 122 -81 246 -40 124 -103 311 -140 415 -37 105 -99
309 -139 455 -124 458 -198 695 -315 1010 -96 255 -183 462 -228 541 -78 135
-118 228 -148 344 -42 164 -67 207 -151 262 -82 54 -142 120 -175 190 -36 78
-21 91 56 47z m-2119 -164 c25 -49 85 -237 111 -345 18 -75 20 -111 17 -215
-6 -158 -23 -204 -92 -244 -25 -15 -50 -25 -55 -22 -4 3 -11 56 -15 118 -8
147 -36 724 -36 762 l0 29 26 -24 c14 -13 34 -40 44 -59z m-304 -147 c-8 -172
0 -502 21 -819 l6 -92 -45 -20 c-35 -15 -46 -26 -54 -53 -7 -24 -23 -43 -57
-65 -27 -18 -61 -49 -77 -71 -43 -59 -115 -86 -106 -40 9 39 34 204 81 522
103 701 130 812 201 826 16 3 31 4 34 3 3 -1 1 -87 -4 -191z m5254 54 c0 -37
-29 -113 -51 -133 -13 -11 -33 -17 -60 -16 -47 2 -119 22 -119 32 0 11 200
140 216 140 8 0 14 -10 14 -23z m-5749 -137 c15 -53 6 -280 -11 -280 -12 0
-47 278 -37 295 12 23 40 14 48 -15z m-170 -76 c9 -11 16 -53 19 -116 3 -54 4
-98 2 -98 -21 0 -134 64 -151 86 -47 59 0 144 78 144 24 0 44 -6 52 -16z
m2649 -185 c0 -98 -2 -110 -15 -99 -9 7 -15 29 -15 55 0 41 19 155 26 155 2 0
4 -50 4 -111z m-122 -202 c34 -95 142 -496 172 -642 12 -55 23 -149 25 -210
l5 -110 -94 280 c-52 154 -113 345 -135 425 -49 180 -57 200 -75 200 -17 0 -8
40 25 117 25 59 38 49 77 -60z m-2358 -278 l0 -161 -56 51 c-31 28 -66 54 -79
57 -37 9 -40 39 -10 89 22 39 117 124 138 125 4 0 7 -72 7 -161z m2180 79 c28
-26 89 -157 118 -253 58 -191 74 -393 137 -1735 28 -580 47 -881 70 -1115 19
-188 74 -527 87 -540 6 -7 8 5 4 35 -5 43 -15 176 -36 515 -11 185 -37 675
-80 1510 -16 325 -33 649 -36 720 -6 117 -6 129 9 117 8 -7 33 -59 56 -115 97
-244 113 -349 236 -1521 36 -342 71 -679 79 -751 l15 -130 -4 155 c-29 1022
-29 1137 0 1147 6 2 27 -103 49 -245 49 -309 89 -508 115 -566 42 -97 79 -36
89 148 l7 121 23 -146 c30 -189 51 -370 52 -437 0 -69 -12 -92 -51 -92 -23 0
-32 -6 -40 -27 -8 -22 -6 -36 15 -78 28 -58 29 -66 56 -365 31 -348 44 -418
88 -459 24 -24 25 -27 19 -129 l-6 -105 -45 -46 c-25 -25 -85 -70 -133 -100
-196 -120 -222 -140 -258 -194 l-35 -53 -189 -12 c-296 -20 -422 -42 -598
-108 -168 -62 -316 -89 -718 -129 -422 -43 -458 -53 -472 -138 -5 -33 -3 -37
23 -48 l29 -11 -24 -19 c-45 -37 -91 -19 -91 34 0 29 -1 29 -42 24 -24 -3 -72
-11 -108 -17 -144 -27 -721 8 -900 54 -150 38 -270 49 -815 71 -198 8 -395 18
-438 21 -90 8 -98 14 -117 104 -16 76 -29 477 -19 580 4 47 8 89 8 93 1 5 13
7 28 5 20 -2 29 -11 35 -33 5 -16 13 -145 18 -285 12 -332 28 -393 94 -362 46
21 52 51 28 149 -12 47 -30 96 -41 107 -19 20 -19 26 -6 180 23 254 31 289 57
229 23 -53 48 -73 94 -73 53 0 137 36 187 79 35 31 87 124 87 155 0 25 13 18
40 -21 37 -54 75 -89 130 -119 79 -43 91 -94 109 -454 12 -246 26 -280 113
-280 47 0 48 1 48 30 0 24 4 30 23 30 12 0 41 -11 64 -24 38 -22 43 -23 47 -8
6 20 62 528 72 655 4 48 9 86 11 83 2 -2 8 -59 14 -126 12 -145 27 -190 63
-190 l26 0 0 105 c0 178 13 211 110 284 20 15 46 54 69 100 31 66 43 81 94
114 92 60 104 89 138 312 11 77 26 145 32 152 12 11 87 35 87 27 0 -2 11 -133
25 -291 65 -751 76 -803 105 -474 13 154 23 164 38 41 l9 -75 2 115 c0 64 -4
444 -9 845 -25 1772 -28 2020 -25 2023 2 2 17 -21 34 -52 35 -60 88 -112 125
-122 44 -11 90 0 101 23 5 12 20 24 32 28 21 5 221 -20 230 -29 3 -2 20 -190
38 -418 53 -655 85 -988 101 -1063 22 -99 31 -181 49 -420 20 -266 33 -428 41
-485 18 -130 35 132 51 755 4 192 10 284 15 255 4 -25 28 -288 54 -585 25
-297 50 -549 55 -560 7 -17 8 -16 4 5 -2 14 -6 133 -10 265 -10 398 -34 1012
-61 1535 -37 737 -42 859 -37 879 3 14 21 21 70 29 49 8 73 18 94 38 41 40 82
147 124 329 20 88 46 195 57 237 20 77 20 78 60 89 22 6 44 7 48 2 3 -4 26
-145 49 -313 24 -168 87 -574 142 -903 54 -329 110 -684 124 -790 30 -223 33
-233 50 -193 15 35 18 29 34 -69 21 -124 103 -884 137 -1268 3 -43 8 -76 11
-73 5 5 -12 710 -27 1136 -26 692 -75 1294 -171 2069 -39 323 -59 620 -45 695
6 29 13 40 36 48 19 6 41 28 61 61 62 103 77 117 118 117 24 0 45 -7 61 -22z
m572 -937 c-25 -43 -52 8 -72 134 -16 106 -70 572 -69 597 0 13 34 -143 75
-347 46 -230 71 -375 66 -384z m-952 485 c29 -90 89 -646 67 -626 -10 9 -117
448 -117 479 0 51 22 181 30 181 5 0 13 -15 20 -34z m1099 -82 c23 -57 23 -63
12 -158 -11 -98 -15 -115 -27 -103 -7 6 -20 114 -29 241 -8 106 7 113 44 20z
m-2415 -113 c56 -27 128 -54 161 -61 122 -26 137 -59 105 -233 l-22 -113 -64
-77 c-66 -79 -95 -93 -113 -59 -5 10 -12 91 -14 179 -4 132 -8 168 -25 206
-30 67 -79 85 -142 52 -49 -25 -68 -82 -95 -269 -17 -122 -34 -150 -93 -154
-23 -2 -42 1 -42 6 0 16 50 397 61 464 14 88 36 108 122 108 52 0 75 -7 161
-49z m489 -298 c4 -2 7 -17 7 -32 0 -62 -176 -252 -193 -208 -5 14 28 181 42
214 16 34 103 50 144 26z m-904 -267 c18 -22 20 -894 3 -963 -16 -59 -30 -66
-61 -27 -42 54 -45 84 -15 201 28 106 28 115 31 443 2 184 6 341 8 348 6 16
20 15 34 -2z m186 -438 c-3 -172 -9 -342 -12 -378 -6 -60 -8 -52 -19 95 -18
230 -28 515 -20 558 6 31 11 37 32 37 l25 0 -6 -312z m2544 34 c17 -111 23
-212 13 -212 -5 0 -15 44 -21 98 -6 53 -14 119 -17 146 -9 75 12 48 25 -32z
m2736 -803 c4 -5 4 -38 0 -71 l-7 -62 -15 29 c-22 40 -33 84 -26 101 6 16 39
19 48 3z m-1147 -191 c13 -13 14 -73 3 -123 l-7 -30 -18 27 c-19 30 -32 98
-23 123 8 18 28 20 45 3z m1352 -20 c0 -40 -14 -51 -34 -29 -22 24 -15 51 14
51 14 0 20 -7 20 -22z m-5566 -185 c-3 -76 -9 -163 -13 -193 -6 -54 -7 -52
-24 70 -18 128 -22 241 -10 253 3 4 17 7 30 7 l24 0 -7 -137z m5181 26 c9 -14
-15 -100 -26 -93 -17 10 -6 104 12 104 4 0 11 -5 14 -11z m300 -670 c0 -13 -6
-24 -12 -23 -7 1 -23 2 -35 3 l-21 1 23 25 c28 30 45 28 45 -6z m-1131 -72 c4
-27 16 -57 27 -68 17 -17 18 -19 2 -19 -26 0 -96 21 -110 32 -10 8 -8 17 7 39
11 15 28 45 37 66 14 33 16 35 23 18 4 -11 10 -42 14 -68z m-7336 -437 c1 -36
-6 -112 -16 -170 l-19 -105 -6 85 c-4 47 -9 125 -13 173 l-6 89 29 -4 c27 -3
28 -5 31 -68z m545 -137 c34 -31 18 -83 -25 -83 -24 0 -32 -6 -44 -35 -7 -19
-14 -48 -14 -65 0 -18 -4 -29 -10 -25 -5 3 -10 48 -10 98 0 110 15 143 59 132
14 -4 34 -14 44 -22z m477 -489 c0 -335 -1 -356 -17 -349 -10 4 -85 9 -168 12
-155 5 -205 -2 -205 -32 0 -20 -40 -29 -105 -20 l-55 6 30 45 c17 24 48 58 69
75 22 17 42 41 46 52 3 12 10 105 15 207 5 102 13 197 19 211 9 26 11 27 133
31 153 6 193 20 215 78 9 22 18 40 20 40 1 0 3 -160 3 -356z m5100 -239 c-19
-7 -67 -14 -106 -14 -120 -2 -314 12 -308 21 3 4 105 8 227 7 197 0 218 -2
187 -14z m-5162 -192 c-4 -38 -39 -53 -123 -53 -84 0 -119 15 -123 53 l-3 27
126 0 126 0 -3 -27z m4580 -9 c69 -14 26 -24 -100 -24 -140 0 -296 16 -313 32
-11 11 355 4 413 -8z m-812 -42 l13 -42 -27 6 c-52 13 -132 46 -132 54 0 13
59 29 100 27 31 -2 35 -6 46 -45z m-1496 -349 c-1 -14 -48 -43 -79 -49 -23 -5
-30 -2 -36 15 -3 11 -3 25 0 31 7 11 115 14 115 3z"/>
<path d="M4528 1333 c-10 -2 -21 -16 -24 -29 -11 -43 17 -204 35 -204 4 0 11
34 15 77 8 101 8 163 -1 162 -5 -1 -16 -3 -25 -6z"/>
<path d="M7335 12055 c-14 -13 -25 -30 -25 -38 0 -21 -93 -114 -175 -176 -38
-29 -122 -77 -185 -108 -125 -59 -150 -77 -150 -104 0 -25 -38 -52 -144 -103
-123 -59 -226 -134 -265 -193 -60 -91 -76 -165 -76 -363 0 -175 0 -175 31
-240 61 -129 181 -242 304 -286 29 -10 64 -29 77 -42 29 -26 29 -4 -7 -244
-12 -84 -18 -154 -14 -179 10 -62 53 -105 117 -119 100 -20 138 -59 152 -155
10 -73 29 -112 64 -129 16 -9 34 -16 38 -16 5 0 3 71 -4 158 -6 86 -12 166
-13 177 -1 46 -12 50 -142 50 l-123 0 -3 36 c-2 20 15 108 37 195 54 213 73
306 64 315 -5 3 -46 19 -93 34 -136 44 -219 88 -286 152 l-61 58 -12 150 c-19
253 -23 378 -14 419 9 40 10 40 138 98 157 70 309 155 476 263 149 97 196 138
254 220 39 54 115 181 115 191 0 15 -55 0 -75 -21z"/>
<path d="M2635 10875 c-121 -33 -398 -125 -427 -142 -43 -25 -45 -57 -3 -61
39 -4 228 39 320 72 39 13 102 34 140 46 76 23 105 43 105 70 0 33 -49 38
-135 15z"/>
<path d="M7902 10718 c-5 -7 -20 -37 -33 -67 -33 -77 -46 -81 -289 -81 -268 0
-292 -10 -305 -131 -7 -61 -5 -67 20 -97 15 -18 41 -40 57 -48 39 -20 162 -40
327 -54 108 -9 137 -8 146 2 7 7 29 60 50 118 20 58 50 128 65 155 23 42 36
78 75 203 3 8 -11 12 -49 12 -31 0 -58 -5 -64 -12z m-515 -250 c9 -10 48 -28
87 -39 86 -25 96 -33 96 -71 0 -23 -4 -28 -17 -24 -10 3 -49 15 -88 27 -109
33 -115 38 -114 112 0 51 2 58 10 37 6 -13 17 -33 26 -42z"/>
<path d="M2315 10540 c-11 -18 6 -51 32 -61 13 -5 44 -9 69 -9 25 0 72 -9 106
-21 79 -26 90 -22 86 38 -3 44 -5 48 -33 54 -50 11 -253 10 -260 -1z"/>
<path d="M6850 8487 c-33 -12 -35 -15 -34 -55 1 -65 29 -96 90 -100 55 -4 192
16 200 30 8 13 -38 89 -66 110 -33 24 -142 33 -190 15z"/>
<path d="M4515 8388 c-12 -106 -15 -109 -87 -107 -85 3 -102 -8 -128 -86 -26
-77 -45 -93 -126 -104 -73 -10 -89 -30 -98 -115 -11 -95 -18 -101 -114 -99
-102 3 -120 -9 -128 -87 -8 -70 -24 -95 -71 -110 -82 -26 -101 -68 -105 -222
-3 -112 5 -128 63 -128 45 0 48 5 16 30 -26 21 -47 80 -47 134 0 50 25 69 111
81 l71 10 17 67 c21 81 38 102 102 123 66 22 92 45 133 120 44 78 67 95 127
95 55 0 70 15 89 82 17 65 40 83 101 80 28 -1 59 2 69 8 10 6 36 42 56 81 37
70 78 109 116 109 26 0 32 20 12 35 -21 15 -144 65 -161 65 -6 0 -14 -27 -18
-62z"/>
<path d="M7342 8407 c-32 -34 -27 -54 17 -77 22 -11 54 -40 70 -64 33 -48 70
-62 111 -43 21 10 25 20 28 64 3 50 2 51 -28 58 -17 4 -53 24 -80 46 -57 45
-87 49 -118 16z"/>
<path d="M3505 6730 c-22 -67 -18 -94 18 -98 44 -5 60 15 52 63 -6 42 -29 85
-44 85 -5 0 -17 -22 -26 -50z"/>
<path d="M3354 6391 c-84 -62 -106 -160 -61 -271 21 -52 39 -68 101 -92 10 -4
-18 -142 -39 -192 -29 -69 -65 -68 -110 4 -29 47 -49 54 -106 39 -44 -11 -180
-26 -252 -28 -29 -1 -45 -8 -67 -32 -27 -30 -31 -32 -85 -26 -71 7 -113 32
-139 82 -17 32 -30 42 -67 53 -59 19 -84 12 -146 -38 -64 -51 -127 -79 -175
-80 -32 0 -45 8 -96 59 -90 92 -141 92 -186 2 -29 -57 -68 -91 -95 -84 -11 3
-37 20 -59 38 -45 39 -104 71 -149 80 -25 5 -34 2 -42 -13 -16 -31 -45 -202
-35 -212 11 -11 281 31 359 55 50 16 59 23 74 57 l16 38 50 -35 c57 -39 145
-65 223 -65 49 0 56 3 98 45 48 47 145 88 163 69 5 -5 21 -52 36 -104 31 -112
65 -175 98 -184 13 -3 48 -27 79 -54 71 -63 96 -69 142 -39 19 13 63 30 98 37
213 42 282 61 313 84 l33 26 4 -48 c3 -41 0 -50 -24 -72 -35 -32 -44 -90 -58
-370 -12 -260 -26 -425 -45 -545 -26 -164 -52 -210 -153 -267 -71 -41 -95 -89
-51 -103 22 -7 184 12 209 25 27 14 61 242 95 635 23 258 45 435 61 488 3 9
22 24 41 32 l36 15 -5 113 c-7 139 -2 161 37 165 62 7 75 51 22 70 -19 7 -44
23 -56 36 l-22 23 20 35 c38 64 50 244 20 301 -6 9 -28 29 -50 43 -29 18 -39
31 -36 42 3 9 17 50 31 90 14 41 26 80 26 88 0 23 -33 16 -76 -15z m-1685
-598 c3 -2 -5 -14 -18 -26 -21 -21 -23 -21 -36 -4 -20 28 -8 48 24 41 14 -4
28 -9 30 -11z m1517 -68 c34 -82 8 -135 -76 -154 -60 -14 -197 -13 -240 2 -65
22 -74 97 -19 155 27 30 34 28 58 -14 20 -34 24 -36 59 -29 20 3 64 22 97 40
79 45 102 45 121 0z"/>
<path d="M9185 5845 c-5 -11 -23 -42 -41 -68 -40 -58 -41 -68 -54 -392 -6
-143 -19 -382 -29 -531 -21 -296 -28 -329 -79 -339 -46 -10 -57 -20 -68 -66
-12 -50 5 -46 -170 -34 -118 9 -154 3 -154 -25 0 -32 40 -49 141 -60 141 -15
231 -13 257 6 12 8 22 20 22 25 0 6 20 40 44 78 24 37 50 87 57 112 7 24 15
137 18 254 6 197 7 212 28 240 32 42 42 132 49 435 5 253 -4 406 -21 365z"/>
<path d="M1800 5573 c0 -27 13 -41 50 -57 20 -8 48 -26 63 -40 l27 -25 0 38
c0 41 -13 58 -67 85 -43 21 -73 21 -73 -1z"/>
<path d="M2212 5573 c-24 -8 -40 -19 -35 -23 8 -7 178 -53 240 -65 33 -7 103
10 103 24 0 4 -19 14 -42 21 -24 6 -61 23 -84 36 -48 28 -115 31 -182 7z"/>
<path d="M1720 5124 c-14 -438 -8 -597 30 -733 37 -131 66 -172 192 -266 60
-45 120 -63 278 -86 125 -17 619 -22 735 -7 l100 13 18 39 c10 21 15 42 10 47
-5 5 -47 4 -93 -1 -47 -5 -184 -14 -305 -20 -337 -18 -492 0 -700 79 -79 30
-82 33 -108 86 -32 66 -50 162 -71 385 -19 194 -56 698 -57 773 0 29 -4 61 -8
71 -4 11 -13 -160 -21 -380z"/>
<path d="M3596 5404 c-6 -20 -13 -25 -88 -57 -29 -13 -39 -24 -47 -54 -14 -51
-14 -88 2 -100 14 -12 109 -45 114 -40 1 2 -15 21 -37 42 -22 22 -40 47 -40
56 0 10 22 30 55 48 58 33 76 64 58 104 l-10 22 -7 -21z"/>
<path d="M3494 4724 c-46 -23 -57 -55 -55 -165 2 -84 -1 -97 -19 -114 -19 -17
-19 -19 -4 -36 23 -25 80 -35 100 -18 14 11 16 28 11 99 -7 114 -1 130 51 148
45 15 65 50 45 81 -14 22 -90 25 -129 5z"/>
<path d="M3450 3779 c0 -128 2 -145 25 -192 32 -69 54 -157 45 -182 -5 -13
-23 -23 -51 -30 -67 -16 -76 -40 -58 -151 l14 -89 61 -3 c49 -2 66 1 85 17 31
25 18 50 -37 70 -21 8 -41 16 -43 18 -3 2 5 24 17 51 58 127 81 332 37 332
-24 0 -43 41 -54 120 -12 87 -31 180 -37 180 -2 0 -4 -63 -4 -141z"/>
<path d="M3521 3019 c-6 -18 -11 -53 -11 -79 0 -66 -18 -152 -35 -169 -7 -8
-31 -17 -52 -20 -38 -6 -38 -7 -45 -61 -13 -97 10 -140 75 -140 l29 0 -32 27
c-38 31 -55 70 -40 88 6 7 28 15 49 19 43 7 63 25 87 81 17 43 31 215 20 259
-9 35 -32 33 -45 -5z"/>
<path d="M500 2562 c0 -34 84 -86 158 -98 40 -6 41 -5 61 35 14 30 16 43 8 46
-39 14 -148 35 -184 35 -35 0 -43 -3 -43 -18z"/>
<path d="M1326 2450 c-40 -12 -66 -38 -87 -87 -16 -37 -22 -43 -49 -43 -24 0
-35 7 -51 35 -25 42 -72 57 -157 53 l-57 -3 53 -37 c28 -21 62 -53 74 -72 31
-47 67 -66 123 -66 43 0 51 4 103 55 41 40 71 60 106 70 66 20 74 19 137 -9
61 -28 157 -48 165 -35 3 5 -1 9 -8 9 -7 0 -37 11 -66 25 -42 19 -56 32 -69
62 -8 21 -20 41 -27 45 -15 10 -154 8 -190 -2z"/>
<path d="M2500 2327 c-19 -8 -64 -32 -99 -55 -72 -47 -158 -82 -201 -82 -21 0
-41 12 -73 44 -34 35 -52 46 -90 51 -54 8 -93 -4 -127 -40 l-21 -23 54 -6 c38
-5 68 -17 103 -42 113 -80 221 -83 386 -11 142 63 160 66 189 33 35 -40 81
-50 224 -50 114 0 146 4 255 33 146 38 184 56 188 93 3 28 -13 42 -71 59 -24
7 -35 4 -61 -16 -35 -26 -143 -66 -162 -58 -7 2 -15 15 -18 29 -12 46 -57 26
-109 -50 -15 -21 -26 -26 -62 -26 -37 0 -54 8 -122 59 -86 65 -128 78 -183 58z"/>
</g>
</svg>
