<?xml version="1.0" standalone="no"?>
<svg version="1.0" xmlns="http://www.w3.org/2000/svg"
 width="156.000000pt" height="106.000000pt" viewBox="0 0 156.000000 106.000000"
 preserveAspectRatio="xMidYMid meet">

<g transform="translate(0.000000,106.000000) scale(0.100000,-0.100000)"
fill="#000000" stroke="none">
<path class="hill" fill="#62211c" d="M614 827 c-54 -40 -105 -76 -112 -81 -9 -5 -24 4 -45 29 l-32 37
-187 -214 c-102 -117 -185 -214 -184 -216 2 -1 69 36 149 83 80 47 150 85 155
85 5 0 26 -25 46 -55 l36 -55 40 26 39 26 107 -56 c59 -31 109 -55 111 -53 1
2 -33 55 -77 117 -44 63 -80 117 -80 120 0 3 35 43 78 88 l77 81 95 -18 c52
-11 96 -18 97 -17 4 3 -197 146 -206 146 -4 0 -52 -33 -107 -73z"/>
<path class="hill" fill="#62211c" d="M980 733 c-36 -42 -80 -93 -98 -114 l-33 -38 38 15 c21 9 59 27 85
40 26 13 54 24 63 24 8 0 120 -52 248 -116 127 -64 225 -109 217 -101 -42 40
-440 367 -447 366 -4 0 -37 -34 -73 -76z"/>
<path class="letter" fill="#cf2226" d="M920 549 c-19 -8 -21 -12 -11 -18 14 -9 12 -20 -14 -85 -7 -16 -6
-17 13 -7 12 6 27 29 33 51 12 38 39 56 39 25 0 -8 -5 -15 -12 -15 -6 0 -9 -2
-6 -5 12 -12 58 15 58 34 0 29 -52 39 -100 20z"/>
<path class="letter" fill="#cf2226" d="M750 540 c-12 -8 -9 -10 13 -10 32 0 31 4 12 -50 -19 -53 -19 -53 5
-40 10 6 25 28 31 50 8 25 18 40 28 40 9 0 23 5 31 10 11 7 -3 10 -45 10 -33
0 -67 -5 -75 -10z"/>
<path class="letter" fill="#cf2226" d="M1059 543 c-30 -7 -53 -93 -29 -108 6 -4 27 3 46 14 42 25 44 25 44
6 0 -8 5 -15 10 -15 12 0 24 27 35 79 9 42 -5 39 -37 -8 -13 -19 -33 -41 -45
-49 -21 -13 -23 -13 -30 4 -4 10 1 30 11 47 18 33 18 35 -5 30z"/>
<path class="letter" fill="#cf2226" d="M291 344 c-19 -8 -41 -24 -49 -36 -15 -21 -15 -21 -42 12 -26 32 -29
33 -57 21 l-30 -12 29 -31 c15 -16 28 -35 28 -42 0 -6 -26 -30 -57 -53 -31
-24 -51 -43 -46 -43 27 0 73 24 88 46 21 32 29 30 55 -11 21 -34 21 -34 54
-19 l32 16 -34 36 -33 37 23 20 c13 11 40 32 59 47 38 30 31 35 -20 12z"/>
<path class="letter" fill="#cf2226" d="M435 345 l-40 -13 32 -1 c54 -2 84 -50 61 -97 -17 -36 -39 -48 -71
-40 -35 8 -46 50 -24 88 21 36 6 36 -36 -2 -41 -36 -51 -73 -27 -102 21 -27
66 -26 124 1 83 41 124 108 89 149 -24 28 -59 34 -108 17z"/>
<path class="letter" fill="#cf2226" d="M704 350 c-11 -4 -28 -19 -37 -33 -9 -14 -42 -53 -74 -88 -48 -52
-54 -61 -33 -56 14 4 28 7 32 7 4 0 26 27 48 60 22 33 44 60 49 60 4 0 15 -26
24 -57 23 -81 28 -87 60 -72 23 11 24 14 12 33 -8 11 -21 51 -31 89 -9 37 -19
67 -23 66 -3 0 -15 -4 -27 -9z"/>
<path class="letter" fill="#cf2226" d="M897 344 c-21 -12 -26 -20 -21 -38 4 -16 -5 -44 -25 -85 l-31 -61 34
17 c22 10 37 26 41 42 l7 26 20 -28 c25 -35 61 -35 111 -2 l37 26 6 -40 c6
-40 6 -40 34 -26 26 13 27 17 20 56 -9 47 -4 77 18 102 17 19 6 22 -31 8 -14
-6 -28 -19 -32 -30 -3 -12 -18 -35 -32 -51 -46 -55 -89 -33 -117 59 -11 39
-11 39 -39 25z"/>
<path class="letter" fill="#cf2226" d="M1311 349 c-14 -6 -31 -20 -40 -32 -8 -12 -42 -51 -75 -86 -58 -60
-59 -64 -31 -57 17 4 35 14 41 22 7 9 30 14 66 14 49 0 56 -3 66 -25 6 -14 15
-25 19 -25 14 1 59 29 47 30 -14 0 -29 36 -45 105 -14 61 -18 65 -48 54z m-2
-79 l10 -30 -41 0 -42 0 29 30 c16 17 30 30 31 30 1 0 7 -13 13 -30z"/>
</g>
</svg>
